<svg width="668" height="245" viewBox="0 0 668 245" fill="none" xmlns="http://www.w3.org/2000/svg">
<g filter="url(#filter0_d_73_16)">
<path d="M616.258 44.9676H406.96C395.966 18.9975 364.537 4 333.765 4C303.001 4 271.565 18.9975 260.572 44.9676H51.7384C25.4833 44.9676 4 65.7794 4 91.2132V167.22C4 192.665 25.4833 213.465 51.7384 213.465H261.084C266.035 221.865 275.347 227.526 286.045 227.526C290.992 227.526 295.639 226.324 299.705 224.192C307.441 234.256 319.817 240.775 333.765 240.775C348.129 240.775 360.813 233.863 368.488 223.293C372.904 225.96 378.1 227.526 383.695 227.526C394.391 227.526 403.704 221.865 408.66 213.465H616.258C642.519 213.465 664 192.665 664 167.22V91.2132C664 65.7794 642.519 44.9676 616.258 44.9676Z" fill="#FDF1EC"/>
</g>
<defs>
<filter id="filter0_d_73_16" x="0" y="0" width="668" height="244.775" filterUnits="userSpaceOnUse" color-interpolation-filters="sRGB">
<feFlood flood-opacity="0" result="BackgroundImageFix"/>
<feColorMatrix in="SourceAlpha" type="matrix" values="0 0 0 0 0 0 0 0 0 0 0 0 0 0 0 0 0 0 127 0" result="hardAlpha"/>
<feOffset/>
<feGaussianBlur stdDeviation="2"/>
<feComposite in2="hardAlpha" operator="out"/>
<feColorMatrix type="matrix" values="0 0 0 0 0 0 0 0 0 0 0 0 0 0 0 0 0 0 0.25 0"/>
<feBlend mode="normal" in2="BackgroundImageFix" result="effect1_dropShadow_73_16"/>
<feBlend mode="normal" in="SourceGraphic" in2="effect1_dropShadow_73_16" result="shape"/>
</filter>
</defs>
</svg>
