<svg width="1" height="1" viewBox="0 0 1 1" fill="none" xmlns="http://www.w3.org/2000/svg">
<g clip-path="url(#clip0_94_4)">
<g filter="url(#filter0_d_94_4)">
<path d="M0.904515 0.173023H0.64592C0.623933 0.0633407 0.561074 0 0.49953 0C0.438002 0 0.375131 0.0633407 0.353144 0.173023H0.0954769C0.0429666 0.173023 0 0.26092 0 0.368338V0.689345C0 0.796812 0.0429666 0.88466 0.0954769 0.88466H0.354167C0.364071 0.920134 0.382693 0.944043 0.404089 0.944043C0.413985 0.944043 0.423278 0.938966 0.43141 0.929965C0.446882 0.972465 0.471635 1 0.49953 1C0.528258 1 0.553625 0.970806 0.568976 0.926165C0.577808 0.937431 0.588201 0.944043 0.59939 0.944043C0.620783 0.944043 0.639409 0.920134 0.649321 0.88466H0.904515C0.957038 0.88466 1 0.796812 1 0.689345V0.368338C1 0.26092 0.957038 0.173023 0.904515 0.173023Z" fill="#FDF1EC"/>
</g>
</g>
<defs>
<filter id="filter0_d_94_4" x="-4" y="-4" width="9" height="9" filterUnits="userSpaceOnUse" color-interpolation-filters="sRGB">
<feFlood flood-opacity="0" result="BackgroundImageFix"/>
<feColorMatrix in="SourceAlpha" type="matrix" values="0 0 0 0 0 0 0 0 0 0 0 0 0 0 0 0 0 0 127 0" result="hardAlpha"/>
<feOffset/>
<feGaussianBlur stdDeviation="2"/>
<feComposite in2="hardAlpha" operator="out"/>
<feColorMatrix type="matrix" values="0 0 0 0 0 0 0 0 0 0 0 0 0 0 0 0 0 0 0.25 0"/>
<feBlend mode="normal" in2="BackgroundImageFix" result="effect1_dropShadow_94_4"/>
<feBlend mode="normal" in="SourceGraphic" in2="effect1_dropShadow_94_4" result="shape"/>
</filter>
<clipPath id="clip0_94_4">
<rect width="1" height="1" fill="white"/>
</clipPath>
</defs>
</svg>
