<svg width="668" height="245" viewBox="0 0 668 245" fill="none" xmlns="http://www.w3.org/2000/svg">
<g filter="url(#filter0_d_73_11)">
<path d="M51.7424 199.807L261.04 199.807C272.034 225.777 303.463 240.775 334.235 240.775C364.999 240.775 396.435 225.777 407.428 199.807L616.262 199.807C642.517 199.807 664 178.996 664 153.562V77.5552C664 52.1096 642.517 31.3096 616.262 31.3096L406.916 31.3096C401.965 22.9102 392.653 17.2491 381.955 17.2491C377.008 17.2491 372.361 18.4512 368.295 20.5825C360.559 10.5194 348.183 3.99988 334.235 3.99988C319.871 3.99988 307.187 10.9122 299.512 21.4822C295.096 18.8146 289.9 17.2491 284.305 17.2491C273.609 17.2491 264.296 22.9102 259.34 31.3096L51.7424 31.3096C25.4813 31.3096 4 52.1096 4 77.5552V153.562C4 178.996 25.4813 199.807 51.7424 199.807Z" fill="#FDF1EC"/>
</g>
<defs>
<filter id="filter0_d_73_11" x="0" y="0" width="668" height="244.775" filterUnits="userSpaceOnUse" color-interpolation-filters="sRGB">
<feFlood flood-opacity="0" result="BackgroundImageFix"/>
<feColorMatrix in="SourceAlpha" type="matrix" values="0 0 0 0 0 0 0 0 0 0 0 0 0 0 0 0 0 0 127 0" result="hardAlpha"/>
<feOffset/>
<feGaussianBlur stdDeviation="2"/>
<feComposite in2="hardAlpha" operator="out"/>
<feColorMatrix type="matrix" values="0 0 0 0 0 0 0 0 0 0 0 0 0 0 0 0 0 0 0.25 0"/>
<feBlend mode="normal" in2="BackgroundImageFix" result="effect1_dropShadow_73_11"/>
<feBlend mode="normal" in="SourceGraphic" in2="effect1_dropShadow_73_11" result="shape"/>
</filter>
</defs>
</svg>
